<?xml version="1.0" encoding="UTF-8" standalone="no"?><!DOCTYPE svg PUBLIC "-//W3C//DTD SVG 1.1//EN" "http://www.w3.org/Graphics/SVG/1.1/DTD/svg11.dtd"><svg width="100%" height="100%" viewBox="0 0 67 67" version="1.1" xmlns="http://www.w3.org/2000/svg" xmlns:xlink="http://www.w3.org/1999/xlink" xml:space="preserve" xmlns:serif="http://www.serif.com/" style="fill-rule:evenodd;clip-rule:evenodd;stroke-linejoin:round;stroke-miterlimit:2;"><path d="M8.333,8.333c0,-2.285 1.881,-4.166 4.167,-4.166l41.667,-0c2.285,-0 4.166,1.881 4.166,4.166c0,6.25 -4.029,10.938 -7.804,15.25c-3.171,3.625 -5.9,6.846 -7.812,9.75c1.912,2.905 4.645,6.125 7.812,9.75c3.775,4.313 7.804,9 7.804,15.25c0,2.286 -1.881,4.167 -4.166,4.167l-41.667,0c-2.286,0 -4.167,-1.881 -4.167,-4.167c0,-6.25 4.03,-10.937 7.804,-15.25c3.171,-3.625 5.901,-6.845 7.813,-9.75c-1.913,-2.904 -4.646,-6.125 -7.812,-9.75c-3.775,-4.312 -7.805,-9 -7.805,-15.25Zm24.108,43.124c1.121,-0 2.108,-0.38 2.963,-1.14c0.854,-0.759 1.281,-1.804 1.281,-3.133c0,-1.196 -0.408,-2.202 -1.224,-3.019c-0.817,-0.816 -1.823,-1.225 -3.02,-1.225c-1.215,0 -2.24,0.409 -3.076,1.225c-0.835,0.817 -1.253,1.823 -1.253,3.019c-0,1.348 0.432,2.398 1.296,3.148c0.864,0.75 1.875,1.125 3.033,1.125Zm-13.899,-31.218c-0,0.874 0.365,1.686 1.096,2.436c0.731,0.75 1.629,1.125 2.692,1.125c1.804,-0 3.029,-1.073 3.674,-3.219c0.684,-2.051 1.519,-3.603 2.507,-4.657c0.987,-1.054 2.525,-1.581 4.614,-1.581c1.785,0 3.242,0.522 4.372,1.567c1.13,1.044 1.695,2.326 1.695,3.845c-0,0.779 -0.185,1.5 -0.556,2.165c-0.37,0.664 -0.826,1.267 -1.367,1.808c-0.541,0.542 -1.419,1.344 -2.634,2.407c-1.387,1.216 -2.488,2.265 -3.304,3.148c-0.817,0.883 -1.472,1.908 -1.966,3.076c-0.493,1.168 -0.74,2.549 -0.74,4.144c-0,1.272 0.337,2.231 1.011,2.877c0.674,0.645 1.505,0.968 2.492,0.968c1.899,0 3.029,-0.987 3.39,-2.962c0.208,-0.93 0.365,-1.581 0.47,-1.951c0.104,-0.37 0.251,-0.741 0.441,-1.111c0.19,-0.37 0.48,-0.778 0.869,-1.225c0.389,-0.446 0.906,-0.963 1.552,-1.552c2.336,-2.089 3.954,-3.575 4.856,-4.458c0.902,-0.883 1.681,-1.932 2.336,-3.147c0.655,-1.215 0.983,-2.63 0.983,-4.244c-0,-2.051 -0.575,-3.95 -1.723,-5.697c-1.149,-1.746 -2.778,-3.128 -4.885,-4.144c-2.108,-1.016 -4.539,-1.524 -7.292,-1.524c-2.962,0 -5.554,0.608 -7.776,1.823c-2.222,1.216 -3.912,2.749 -5.07,4.6c-1.158,1.852 -1.737,3.679 -1.737,5.483Z" style="fill:#e0e0e0;"/></svg>