<?xml version="1.0" encoding="UTF-8" standalone="no"?><!DOCTYPE svg PUBLIC "-//W3C//DTD SVG 1.1//EN" "http://www.w3.org/Graphics/SVG/1.1/DTD/svg11.dtd"><svg width="100%" height="100%" viewBox="0 0 280 280" version="1.1" xmlns="http://www.w3.org/2000/svg" xmlns:xlink="http://www.w3.org/1999/xlink" xml:space="preserve" xmlns:serif="http://www.serif.com/" style="fill-rule:evenodd;clip-rule:evenodd;stroke-linejoin:round;stroke-miterlimit:2;"><path d="M38.69,16.862c0,-9.248 7.591,-16.862 16.817,-16.862l168.157,-0c9.221,-0 16.812,7.614 16.812,16.862c0,25.298 -16.26,44.273 -31.494,61.727c-12.798,14.672 -23.811,27.71 -31.527,39.464c7.716,11.759 18.745,24.792 31.527,39.465c15.234,17.457 31.494,36.428 31.494,61.726c0,9.253 -7.591,16.866 -16.812,16.866l-168.157,0c-9.226,0 -16.817,-7.613 -16.817,-16.866c0,-25.298 16.264,-44.269 31.495,-61.726c12.797,-14.673 23.815,-27.706 31.531,-39.465c-7.72,-11.754 -18.75,-24.792 -31.527,-39.464c-15.235,-17.454 -31.499,-36.429 -31.499,-61.727Zm97.293,174.55c4.525,0 8.508,-1.538 11.958,-4.614c3.447,-3.072 5.17,-7.302 5.17,-12.681c0,-4.841 -1.646,-8.913 -4.94,-12.22c-3.297,-3.303 -7.357,-4.958 -12.188,-4.958c-4.903,-0 -9.04,1.655 -12.413,4.958c-3.37,3.307 -5.057,7.379 -5.057,12.22c-0,5.456 1.743,9.706 5.23,12.742c3.487,3.036 7.567,4.553 12.24,4.553Zm-56.092,-126.358c-0,3.537 1.473,6.824 4.423,9.86c2.95,3.035 6.574,4.553 10.864,4.553c7.281,0 12.224,-4.343 14.828,-13.029c2.76,-8.302 6.13,-14.584 10.117,-18.85c3.983,-4.266 10.19,-6.399 18.621,-6.399c7.204,-0 13.084,2.113 17.644,6.342c4.56,4.226 6.841,9.415 6.841,15.563c-0,3.154 -0.747,6.072 -2.244,8.764c-1.493,2.687 -3.334,5.128 -5.517,7.318c-2.183,2.194 -5.727,5.44 -10.63,9.742c-5.598,4.922 -10.041,9.168 -13.334,12.742c-3.297,3.574 -5.941,7.723 -7.934,12.451c-1.99,4.727 -2.987,10.317 -2.987,16.773c0,5.149 1.36,9.03 4.08,11.645c2.72,2.611 6.074,3.918 10.057,3.918c7.664,0 12.224,-3.995 13.681,-11.989c0.84,-3.764 1.473,-6.399 1.897,-7.897c0.42,-1.497 1.013,-2.999 1.78,-4.497c0.767,-1.497 1.937,-3.149 3.507,-4.958c1.57,-1.805 3.656,-3.898 6.263,-6.282c9.428,-8.455 15.958,-14.47 19.598,-18.044c3.64,-3.574 6.784,-7.82 9.427,-12.738c2.644,-4.918 3.967,-10.645 3.967,-17.178c0,-8.302 -2.32,-15.988 -6.953,-23.06c-4.637,-7.067 -11.211,-12.661 -19.715,-16.773c-8.507,-4.112 -18.318,-6.169 -29.428,-6.169c-11.954,0 -22.415,2.461 -31.382,7.379c-8.967,4.922 -15.788,11.127 -20.461,18.619c-4.673,7.497 -7.01,14.892 -7.01,22.194Z" style="fill:#e0e0e0;"/><path d="M177.083,262.5c0,9.199 -7.468,16.667 -16.666,16.667l-41.667,-0c-9.199,-0 -16.667,-7.468 -16.667,-16.667c0,-9.199 7.468,-16.667 16.667,-16.667l41.667,0c9.198,0 16.666,7.468 16.666,16.667Z" style="fill:#e0e0e0;"/><path d="M279.167,262.5c-0,9.199 -7.468,16.667 -16.667,16.667l-41.667,-0c-9.198,-0 -16.666,-7.468 -16.666,-16.667c-0,-9.199 7.468,-16.667 16.666,-16.667l41.667,0c9.199,0 16.667,7.468 16.667,16.667Z" style="fill:#e0e0e0;"/><path d="M75,262.5c0,9.199 -7.468,16.667 -16.667,16.667l-41.666,-0c-9.199,-0 -16.667,-7.468 -16.667,-16.667c0,-9.199 7.468,-16.667 16.667,-16.667l41.666,0c9.199,0 16.667,7.468 16.667,16.667Z" style="fill:#e0e0e0;"/></svg>